<?xml version="1.0" encoding="UTF-8"?>
<svg id="Layer_1" data-name="Layer 1" xmlns="http://www.w3.org/2000/svg" viewBox="0 0 900 183.15">
  <defs>
    <style>
      .cls-1 {
        fill-rule: evenodd;
      }

      .cls-1, .cls-2 {
        fill: #3b3a39;
      }

      .cls-3 {
        fill: #e3000e;
      }
    </style>
  </defs>
  <g>
    <g id="SPLINE">
      <path class="cls-3" d="m169.221,52.235h-93.921l-4.431,20.826h42.755c21.897,0,39.653,17.749,39.653,39.647s-17.536,40.097-39.434,40.097h-59.809l-4.432,20.821h100.57c7.423,0,13.618-5.191,15.163-12.458l19.048-89.935c.987-4.641-.171-9.48-3.158-13.164-2.987-3.687-7.259-5.834-12.005-5.834Z"/>
    </g>
    <g id="SPLINE-2" data-name="SPLINE">
      <path class="cls-2" d="m116.061,102.299h-42.974c-21.896,0-39.874-17.749-39.874-39.65s17.755-39.653,39.651-39.653h60.027l4.431-20.822-100.729.013c-7.427,0-13.802,5.128-15.344,12.391L2.2,104.513c-.987,4.641.201,9.539,3.188,13.227,2.986,3.687,7.128,5.826,11.875,5.826h94.366l4.432-21.267Z"/>
    </g>
  </g>
  <g id="SPLINE-3" data-name="SPLINE">
    <path class="cls-3" d="m233.348,70.895l-17.721,83.735c-.987,4.641.075,9.53,3.061,13.219,2.982,3.687,7.7,5.829,12.443,5.829h63.562l4.317-20.381h-44.098c-8.2,0-16.717-7.255-15.062-15.281,1.684-8.165,8.146-41.104,9.748-47.405,1.598-6.285,5.256-11.739,11.741-11.739h53.433l4.317-20.38h-70.238c-7.421,0-13.958,5.141-15.503,12.403Z"/>
  </g>
  <path class="cls-1" d="m653.094,58.43h-57.708c-10.705,0-19.954,7.479-22.194,17.947l-5.778,25.607-8.995,44.139c-.867,4.053-4.449,6.949-8.593,6.949h-1.825l-4.357,20.581h21.238c5.165,0,9.625-3.612,10.699-8.664l8.634-41.858,7.312-33.22c1.353-6.433,7.029-11.039,13.603-11.039h27.292c7.077,0,12.69,6.254,11.612,13.538l-17.208,81.242h21.235l20.369-96.209c2.118-9.778-5.331-19.014-15.336-19.014Z"/>
  <g>
    <g id="SPLINE-4" data-name="SPLINE">
      <path class="cls-3" d="m413.639,58.436h-62.023c-7.426,0-13.84,5.196-15.386,12.458l-8.317,39.82h21.267l3.214-16.597c2.926-13.76,16.453-22.542,30.213-19.619,13.764,2.928,22.665,16.691,19.738,30.456l-.886,5.76h20.82l7.086-33.225c.987-4.641-.517-9.535-3.503-13.223-2.986-3.688-7.476-5.829-12.222-5.829Z"/>
    </g>
    <g id="POLYLINE">
      <polyline class="cls-3" points="351.393 173.623 372.214 173.623 386.823 104.955 366.014 104.955 351.393 173.623"/>
    </g>
  </g>
  <g>
    <g id="SPLINE-5" data-name="SPLINE">
      <path class="cls-2" d="m765.975,58.436h-61.801c-7.426,0-13.521,5.141-15.062,12.403l-8.418,39.875h20.821l3.541-16.394c2.928-13.759,16.125-22.744,29.891-19.821,13.76,2.928,23.098,16.691,20.175,30.456l-1.328,5.76h20.821l7.091-33.225c.987-4.641-.522-9.535-3.508-13.223-2.982-3.688-7.476-5.829-12.223-5.829Z"/>
    </g>
    <g id="SPLINE-6" data-name="SPLINE">
      <path class="cls-2" d="m747.921,137.5c-2.928,13.761-16.453,22.544-30.218,19.62-13.761-2.926-22.543-16.453-19.676-30.114l1.269-5.661h-20.821l-7.086,33.23c-.982,4.641-.37,9.53,2.617,13.219,2.986,3.687,7.476,5.829,12.223,5.829h62.246c7.426,0,13.962-5.136,15.507-12.403l8.418-39.876h-20.821l-3.659,16.155Z"/>
    </g>
  </g>
  <g>
    <g id="POLYLINE-2" data-name="POLYLINE">
      <polyline class="cls-2" points="818.033 173.623 838.854 173.623 853.476 104.955 832.65 104.955 818.033 173.623"/>
    </g>
    <g id="SPLINE-7" data-name="SPLINE">
      <path class="cls-2" d="m892.502,64.266c-2.986-3.688-7.481-5.829-12.112-5.829h-62.139c-7.422,0-13.735,5.141-15.28,12.403l-8.418,39.875h20.82l3.659-16.597c2.923-13.76,16.452-22.542,30.213-19.619,13.76,2.928,22.548,16.452,19.677,30.336l-1.271,5.88h21.267l7.085-33.225c.992-4.641-.517-9.535-3.503-13.223Z"/>
    </g>
  </g>
  <path class="cls-3" d="m549.213,72.776c1.579-7.381-4.048-14.339-11.596-14.339h-6.773s0,0,0,0h0s-69.637,73.958-69.637,73.958c-.792.841-2.189.113-1.953-1.018l15.214-72.941h-14.667c-3.589,0-6.689,2.509-7.437,6.019l-19.497,91.483c-1.941,9.106,5.003,17.685,14.313,17.686h5.291s67.105-71.255,67.105-71.255c.792-.841,2.189-.112,1.952,1.019l-14.713,70.236h14.871c3.47,0,6.469-2.425,7.195-5.819l20.33-95.029Z"/>
</svg>
